<svg width="420" height="420" viewBox="0 0 420 420" fill="none" xmlns="http://www.w3.org/2000/svg">
<circle cx="210" cy="210" r="210" fill="#918FF3"/>
<path fill-rule="evenodd" clip-rule="evenodd" d="M219.413 296.15H186.102V258.21C187.179 257.626 188.27 257.027 189.374 256.413L241.052 228.096C240.057 238.15 238.273 248.251 235.698 258.398C231.75 274.93 226.322 287.514 219.413 296.15ZM238.717 168.894L186.102 198.216V124.414H220.153C229.075 135.302 235.263 150.129 238.717 168.894ZM287.447 148.587C279.072 121.664 264.29 98.8016 243.101 80H135.766V226.267L130.155 229.394L127.934 228.283L127.934 151.668L85 151.668L85 249.75C95.9656 265.382 112.887 273.624 135.766 274.475V339.084H246.432C279.249 303.8 295.658 259.632 295.658 206.581C295.658 203.775 295.609 200.999 295.512 198.255L297.449 197.193L299.67 198.304V269.367H344.084V180.538C334.955 159.071 317.559 148.337 291.897 148.337C290.469 148.337 288.986 148.421 287.447 148.587ZM287.447 148.587C277.285 149.686 264.704 154.415 249.704 162.772L238.717 168.894C240.899 180.749 241.99 194.174 241.99 209.172C241.99 215.462 241.678 221.77 241.052 228.096L295.512 198.255C294.88 180.396 292.192 163.84 287.447 148.587ZM135.766 274.475C137.083 274.524 138.421 274.548 139.778 274.548C150.551 274.548 165.993 269.102 186.102 258.21V198.216L135.766 226.267V274.475Z" fill="black"/>
</svg>
